<svg xmlns="http://www.w3.org/2000/svg" width="47" height="47" viewBox="0 0 47 47">
  <defs>
    <style>
      .cls-1 {
        fill: #9f9f9f;
        fill-rule: evenodd;
      }
    </style>
  </defs>
  <path id="icon-experience" class="cls-1" d="M575.5,994.99h-1a2.5,2.5,0,0,1-2.5-2.5v-1a2.5,2.5,0,0,1,2.5-2.5h1a2.5,2.5,0,0,1,2.5,2.5v1A2.5,2.5,0,0,1,575.5,994.99Zm-1-5a1.5,1.5,0,0,0-1.5,1.5v1a1.5,1.5,0,0,0,1.5,1.5h1a1.5,1.5,0,0,0,1.5-1.5v-1a1.5,1.5,0,0,0-1.5-1.5h-1Zm22.51,3h-16v-2h16v2ZM575.5,1005h-1a2.508,2.508,0,0,1-2.5-2.5v-1a2.5,2.5,0,0,1,2.5-2.5h1a2.5,2.5,0,0,1,2.5,2.5v1A2.508,2.508,0,0,1,575.5,1005Zm-1-5a1.5,1.5,0,0,0-1.5,1.5v1a1.506,1.506,0,0,0,1.5,1.5h1a1.506,1.506,0,0,0,1.5-1.5v-1a1.5,1.5,0,0,0-1.5-1.5h-1Zm22.51,3h-16v-2h16v2Zm-21.51,12h-1a2.5,2.5,0,0,1-2.5-2.5v-1a2.5,2.5,0,0,1,2.5-2.5h1a2.5,2.5,0,0,1,2.5,2.5v1A2.5,2.5,0,0,1,575.5,1015Zm-1-5a1.5,1.5,0,0,0-1.5,1.5v1a1.5,1.5,0,0,0,1.5,1.5h1a1.5,1.5,0,0,0,1.5-1.5v-1a1.5,1.5,0,0,0-1.5-1.5h-1Zm22.51,3h-16v-2h16v2ZM584.5,1025a23.5,23.5,0,1,1,23.5-23.5A23.525,23.525,0,0,1,584.5,1025Zm0-46a22.5,22.5,0,1,0,22.5,22.5A22.526,22.526,0,0,0,584.5,979Z" transform="translate(-561 -978)"/>
</svg>
